<svg xmlns="http://www.w3.org/2000/svg" xmlns:xlink="http://www.w3.org/1999/xlink" width="500" zoomAndPan="magnify" viewBox="0 0 375 374.999991" height="500" preserveAspectRatio="xMidYMid meet" version="1.0"><defs><clipPath id="4e51e425a9"><path d="M 6.390625 6.390625 L 368.640625 6.390625 L 368.640625 368.640625 L 6.390625 368.640625 Z M 6.390625 6.390625 " clip-rule="nonzero"/></clipPath><clipPath id="dd440a9ef7"><path d="M 37.5 37.5 L 337.5 37.5 L 337.5 337.5 L 37.5 337.5 Z M 37.5 37.5 " clip-rule="nonzero"/></clipPath><clipPath id="5315891fa5"><path d="M 98.738281 7 L 343.238281 7 L 343.238281 260.640625 L 98.738281 260.640625 Z M 98.738281 7 " clip-rule="nonzero"/></clipPath></defs><g clip-path="url(#4e51e425a9)"><path fill="#de3f53" d="M 368.597656 187.492188 C 368.597656 190.457031 368.527344 193.417969 368.378906 196.378906 C 368.234375 199.339844 368.015625 202.296875 367.726562 205.246094 C 367.4375 208.195312 367.074219 211.136719 366.636719 214.066406 C 366.203125 217 365.695312 219.917969 365.117188 222.824219 C 364.539062 225.730469 363.890625 228.625 363.171875 231.5 C 362.449219 234.375 361.660156 237.230469 360.800781 240.066406 C 359.941406 242.902344 359.011719 245.714844 358.011719 248.507812 C 357.011719 251.296875 355.945312 254.0625 354.8125 256.800781 C 353.679688 259.539062 352.476562 262.246094 351.210938 264.925781 C 349.941406 267.605469 348.609375 270.25 347.214844 272.867188 C 345.816406 275.480469 344.355469 278.058594 342.832031 280.601562 C 341.308594 283.140625 339.722656 285.644531 338.078125 288.109375 C 336.429688 290.574219 334.722656 292.996094 332.957031 295.378906 C 331.191406 297.757812 329.371094 300.09375 327.488281 302.386719 C 325.609375 304.675781 323.671875 306.921875 321.683594 309.117188 C 319.691406 311.3125 317.648438 313.457031 315.554688 315.554688 C 313.457031 317.648438 311.3125 319.691406 309.117188 321.683594 C 306.921875 323.671875 304.675781 325.609375 302.386719 327.488281 C 300.09375 329.371094 297.757812 331.191406 295.378906 332.957031 C 292.996094 334.722656 290.574219 336.429688 288.109375 338.078125 C 285.644531 339.722656 283.140625 341.308594 280.601562 342.832031 C 278.058594 344.355469 275.480469 345.816406 272.867188 347.214844 C 270.25 348.609375 267.605469 349.941406 264.925781 351.210938 C 262.246094 352.476562 259.539062 353.679688 256.800781 354.8125 C 254.0625 355.945312 251.296875 357.011719 248.507812 358.011719 C 245.714844 359.011719 242.902344 359.941406 240.066406 360.800781 C 237.230469 361.660156 234.375 362.449219 231.5 363.171875 C 228.625 363.890625 225.730469 364.539062 222.824219 365.117188 C 219.917969 365.695312 217 366.203125 214.066406 366.636719 C 211.136719 367.074219 208.195312 367.4375 205.246094 367.726562 C 202.296875 368.015625 199.339844 368.234375 196.378906 368.378906 C 193.417969 368.527344 190.457031 368.597656 187.492188 368.597656 C 184.53125 368.597656 181.566406 368.527344 178.605469 368.378906 C 175.648438 368.234375 172.691406 368.015625 169.742188 367.726562 C 166.792969 367.4375 163.851562 367.074219 160.921875 366.636719 C 157.988281 366.203125 155.070312 365.695312 152.160156 365.117188 C 149.253906 364.539062 146.363281 363.890625 143.488281 363.171875 C 140.613281 362.449219 137.757812 361.660156 134.921875 360.800781 C 132.085938 359.941406 129.273438 359.011719 126.480469 358.011719 C 123.691406 357.011719 120.925781 355.945312 118.1875 354.8125 C 115.449219 353.679688 112.742188 352.476562 110.0625 351.210938 C 107.382812 349.941406 104.734375 348.609375 102.121094 347.214844 C 99.507812 345.816406 96.929688 344.355469 94.386719 342.832031 C 91.84375 341.308594 89.339844 339.722656 86.878906 338.078125 C 84.414062 336.429688 81.992188 334.722656 79.609375 332.957031 C 77.230469 331.191406 74.894531 329.371094 72.601562 327.488281 C 70.3125 325.609375 68.066406 323.671875 65.871094 321.683594 C 63.675781 319.691406 61.527344 317.648438 59.433594 315.554688 C 57.335938 313.457031 55.292969 311.3125 53.304688 309.117188 C 51.3125 306.921875 49.378906 304.675781 47.496094 302.386719 C 45.617188 300.09375 43.792969 297.757812 42.027344 295.378906 C 40.261719 292.996094 38.558594 290.574219 36.910156 288.109375 C 35.265625 285.644531 33.679688 283.140625 32.15625 280.601562 C 30.632812 278.058594 29.171875 275.480469 27.773438 272.867188 C 26.375 270.25 25.042969 267.605469 23.777344 264.925781 C 22.507812 262.246094 21.308594 259.539062 20.175781 256.800781 C 19.039062 254.0625 17.972656 251.296875 16.976562 248.507812 C 15.976562 245.714844 15.046875 242.902344 14.1875 240.066406 C 13.328125 237.230469 12.535156 234.375 11.816406 231.5 C 11.097656 228.625 10.445312 225.730469 9.867188 222.824219 C 9.289062 219.917969 8.785156 217 8.347656 214.066406 C 7.914062 211.136719 7.550781 208.195312 7.261719 205.246094 C 6.96875 202.296875 6.753906 199.339844 6.605469 196.378906 C 6.460938 193.417969 6.390625 190.457031 6.390625 187.492188 C 6.390625 184.53125 6.460938 181.566406 6.605469 178.605469 C 6.753906 175.648438 6.96875 172.691406 7.261719 169.742188 C 7.550781 166.792969 7.914062 163.851562 8.347656 160.921875 C 8.785156 157.988281 9.289062 155.070312 9.867188 152.160156 C 10.445312 149.253906 11.097656 146.363281 11.816406 143.488281 C 12.535156 140.613281 13.328125 137.757812 14.1875 134.921875 C 15.046875 132.085938 15.976562 129.273438 16.976562 126.480469 C 17.972656 123.691406 19.039062 120.925781 20.175781 118.1875 C 21.308594 115.449219 22.507812 112.742188 23.777344 110.0625 C 25.042969 107.382812 26.375 104.734375 27.773438 102.121094 C 29.171875 99.507812 30.632812 96.929688 32.15625 94.386719 C 33.679688 91.84375 35.265625 89.339844 36.910156 86.878906 C 38.558594 84.414062 40.261719 81.992188 42.027344 79.609375 C 43.792969 77.230469 45.617188 74.894531 47.496094 72.601562 C 49.378906 70.3125 51.3125 68.066406 53.304688 65.871094 C 55.292969 63.675781 57.335938 61.527344 59.433594 59.433594 C 61.527344 57.335938 63.675781 55.292969 65.871094 53.304688 C 68.066406 51.3125 70.3125 49.378906 72.601562 47.496094 C 74.894531 45.617188 77.230469 43.792969 79.609375 42.027344 C 81.992188 40.261719 84.414062 38.558594 86.878906 36.910156 C 89.339844 35.265625 91.84375 33.679688 94.386719 32.15625 C 96.929688 30.632812 99.507812 29.171875 102.121094 27.773438 C 104.734375 26.375 107.382812 25.042969 110.0625 23.777344 C 112.742188 22.507812 115.449219 21.308594 118.1875 20.175781 C 120.925781 19.039062 123.691406 17.972656 126.480469 16.976562 C 129.273438 15.976562 132.085938 15.046875 134.921875 14.1875 C 137.757812 13.328125 140.613281 12.535156 143.488281 11.816406 C 146.363281 11.097656 149.253906 10.445312 152.160156 9.867188 C 155.070312 9.289062 157.988281 8.785156 160.921875 8.347656 C 163.851562 7.914062 166.792969 7.550781 169.742188 7.261719 C 172.691406 6.96875 175.648438 6.753906 178.605469 6.605469 C 181.566406 6.460938 184.53125 6.390625 187.492188 6.390625 C 190.457031 6.390625 193.417969 6.460938 196.378906 6.605469 C 199.339844 6.753906 202.296875 6.96875 205.246094 7.261719 C 208.195312 7.550781 211.136719 7.914062 214.066406 8.347656 C 217 8.785156 219.917969 9.289062 222.824219 9.867188 C 225.730469 10.445312 228.625 11.097656 231.5 11.816406 C 234.375 12.535156 237.230469 13.328125 240.066406 14.1875 C 242.902344 15.046875 245.714844 15.976562 248.507812 16.976562 C 251.296875 17.972656 254.0625 19.039062 256.800781 20.175781 C 259.539062 21.308594 262.246094 22.507812 264.925781 23.777344 C 267.605469 25.042969 270.25 26.375 272.867188 27.773438 C 275.480469 29.171875 278.058594 30.632812 280.601562 32.15625 C 283.140625 33.679688 285.644531 35.265625 288.109375 36.910156 C 290.574219 38.558594 292.996094 40.261719 295.378906 42.027344 C 297.757812 43.792969 300.09375 45.617188 302.386719 47.496094 C 304.675781 49.378906 306.921875 51.3125 309.117188 53.304688 C 311.3125 55.292969 313.457031 57.335938 315.554688 59.433594 C 317.648438 61.527344 319.691406 63.675781 321.683594 65.871094 C 323.671875 68.066406 325.609375 70.3125 327.488281 72.601562 C 329.371094 74.894531 331.191406 77.230469 332.957031 79.609375 C 334.722656 81.992188 336.429688 84.414062 338.078125 86.878906 C 339.722656 89.339844 341.308594 91.84375 342.832031 94.386719 C 344.355469 96.929688 345.816406 99.507812 347.214844 102.121094 C 348.609375 104.734375 349.941406 107.382812 351.210938 110.0625 C 352.476562 112.742188 353.679688 115.449219 354.8125 118.1875 C 355.945312 120.925781 357.011719 123.691406 358.011719 126.480469 C 359.011719 129.273438 359.941406 132.085938 360.800781 134.921875 C 361.660156 137.757812 362.449219 140.613281 363.171875 143.488281 C 363.890625 146.363281 364.539062 149.253906 365.117188 152.160156 C 365.695312 155.070312 366.203125 157.988281 366.636719 160.921875 C 367.074219 163.851562 367.4375 166.792969 367.726562 169.742188 C 368.015625 172.691406 368.234375 175.648438 368.378906 178.605469 C 368.527344 181.566406 368.597656 184.53125 368.597656 187.492188 Z M 368.597656 187.492188 " fill-opacity="1" fill-rule="nonzero"/></g><g clip-path="url(#dd440a9ef7)"><path fill="#ffffff" d="M 187.5 337.5 C 104.628906 337.5 37.5 269.90625 37.5 187.5 C 37.5 105.09375 104.628906 37.5 187.5 37.5 C 270.371094 37.5 337.5 104.628906 337.5 187.5 C 337.5 270.371094 269.90625 337.5 187.5 337.5 Z M 187.5 46.757812 C 109.722656 46.757812 46.757812 109.722656 46.757812 187.5 C 46.757812 265.277344 109.722656 328.242188 187.5 328.242188 C 265.277344 328.242188 328.242188 265.277344 328.242188 187.5 C 328.242188 109.722656 264.816406 46.757812 187.5 46.757812 Z M 187.5 46.757812 " fill-opacity="1" fill-rule="nonzero"/></g><g clip-path="url(#5315891fa5)"><path fill="#ffffff" d="M 334.003906 7.171875 L 323.015625 14.6875 C 265.566406 53.96875 206.738281 135.292969 177.390625 201.410156 C 172.859375 195.066406 171.488281 192.964844 167.097656 185.914062 C 149.152344 161.6875 126.402344 140.898438 115.605469 133.21875 L 98.738281 140.265625 L 99.273438 141.265625 C 110.917969 154.007812 131.355469 182.285156 162.15625 244.597656 C 164.042969 247.285156 166.054688 249.929688 168.347656 252.390625 C 174.375 258.84375 180.554688 260.203125 184.679688 260.203125 C 184.683594 260.203125 184.683594 260.203125 184.683594 260.203125 C 196.441406 260.203125 203.375 250.921875 208.148438 240.058594 C 238.996094 125.621094 311.890625 46.835938 343.414062 19.851562 Z M 334.003906 7.171875 " fill-opacity="1" fill-rule="nonzero"/></g></svg>